<?xml version="1.0" encoding="utf-8"?>
<!-- Generator: Adobe Illustrator 20.1.0, SVG Export Plug-In . SVG Version: 6.00 Build 0)  -->
<svg version="1.1" id="Layer_1" xmlns="http://www.w3.org/2000/svg" xmlns:xlink="http://www.w3.org/1999/xlink" x="0px" y="0px"
	 viewBox="0 0 170 170" style="enable-background:new 0 0 170 170;" xml:space="preserve">
<style type="text/css">
	.st0{fill:#fff;}
</style>
<g>
	<ellipse class="st0" cx="55.1" cy="47.1" rx="1.1" ry="1.1"/>
	<ellipse class="st0" cx="44.8" cy="64.9" rx="1.1" ry="1.1"/>
	<ellipse class="st0" cx="40.2" cy="75" rx="1.1" ry="1.1"/>
	<ellipse class="st0" cx="47.6" cy="109.5" rx="1.1" ry="1.1"/>
	<ellipse class="st0" cx="36.3" cy="92" rx="1.1" ry="1.1"/>
	<ellipse class="st0" cx="49.9" cy="111.5" rx="1.1" ry="1.1"/>
	<ellipse class="st0" cx="64.1" cy="129.2" rx="1.1" ry="1.1"/>
	<ellipse class="st0" cx="109.9" cy="127.8" rx="1.1" ry="1.1"/>
	<ellipse class="st0" cx="111.4" cy="130.3" rx="1.1" ry="1.1"/>
	<ellipse class="st0" cx="122" cy="111.3" rx="1.1" ry="1.1"/>
	<ellipse class="st0" cx="123.5" cy="113.9" rx="1.1" ry="1.1"/>
	<ellipse class="st0" cx="108.3" cy="130.3" rx="1.1" ry="1.1"/>
	<ellipse class="st0" cx="132.3" cy="85.8" rx="1.1" ry="1.1"/>
	<ellipse class="st0" cx="135.1" cy="98.1" rx="1.1" ry="1.1"/>
	<ellipse class="st0" cx="132.3" cy="82.8" rx="1.1" ry="1.1"/>
	<ellipse class="st0" cx="132.2" cy="71.3" rx="1.1" ry="1.1"/>
	<ellipse class="st0" cx="121.9" cy="51.4" rx="1.1" ry="1.1"/>
	<ellipse class="st0" cx="115.8" cy="50.5" rx="1.1" ry="1.1"/>
	<path class="st0" d="M133.7,131.1l0.5-0.4l-0.4-0.5c-0.1-0.2-2.8-3.5-8.7-4.7c1.3-0.4,2.8-0.9,4.3-1.7c7.4-3.8,9.5-9.5,9.6-9.7
		l0.2-0.6l-0.6-0.2c-0.2-0.1-6.1-1.8-13.5,2c-3.4,1.7-5.7,3.8-7.1,5.7c0.4-0.8,0.7-1.6,1-2.5c2-6.3-0.1-10.6-0.2-10.8l-0.3-0.6
		l-0.5,0.3c-0.2,0.1-4.4,2.5-6.4,8.7c-2,6.3,0.1,10.6,0.2,10.8l0.3,0.6l0.5-0.3c0.1-0.1,1.6-0.9,3.2-2.8c-0.2,0.4-0.3,0.6-0.3,0.7
		l-0.2,0.6l0.6,0.2c0,0,0.2,0,0.4,0.1c-1.7,0.6-2.7,1.2-2.8,1.3l-0.5,0.4l0.4,0.5c0.1,0.2,3.1,3.9,9.7,4.9c1,0.1,1.9,0.2,2.7,0.2
		C130.6,133.2,133.5,131.2,133.7,131.1z M128.9,122.8c-4.9,2.5-9.1,2.4-11.2,2.2l19.6-10C136.2,116.8,133.8,120.3,128.9,122.8z
		 M125.6,116.4c4.9-2.5,9.1-2.4,11.2-2.2l-19.6,10C118.3,122.3,120.7,118.9,125.6,116.4z M112.3,125c-0.4-1.7-0.9-4.7,0.3-8.5
		c1.2-3.8,3.3-6,4.6-7.1L112.3,125z M113.2,125.3l4.9-15.6c0.4,1.7,0.9,4.7-0.3,8.5C116.6,121.9,114.5,124.2,113.2,125.3z
		 M124,126.5c3.9,0.6,6.5,2.3,7.8,3.4l-16.3-2.4C117.1,126.8,120,125.9,124,126.5z M115.4,128.4l16.3,2.4c-1.6,0.7-4.5,1.6-8.5,1
		C119.3,131.2,116.7,129.5,115.4,128.4z"/>
	<path class="st0" d="M130.5,111.3c2.5,0,6.3-0.5,10.7-3.1c7.2-4.2,8.9-10,9-10.3l0.2-0.6l-0.6-0.1c-0.2-0.1-6.2-1.4-13.4,2.8
		c-1.8,1-3.2,2.2-4.4,3.3c0.7-2.3,1.2-5.4,0.7-9.3c-1.1-8.2-5.8-12.1-6-12.3l-0.5-0.4l-0.4,0.5c-0.2,0.2-3.7,5.1-2.7,13.4
		c0.3,2.7,1.1,4.9,1.9,6.7c-0.4-0.5-0.8-1-1.2-1.5c-4.4-4.9-9.2-5.3-9.4-5.3l-0.6,0l0,0.6c0,0.2-0.1,5,4.3,9.9
		c4.3,4.7,9.7,5.4,9.7,5.4C127.9,111,128.9,111.3,130.5,111.3z M140.6,107.2c-4.7,2.8-9,3-11.1,2.8l19-11.1
		C147.6,100.8,145.3,104.4,140.6,107.2z M137,101c4.7-2.8,9-3,11.1-2.8l-19,11.1C130,107.4,132.2,103.8,137,101z M131.5,94.2
		c0.7,5.4-0.8,9.4-1.7,11.3L127,83.7C128.4,85.3,130.8,88.7,131.5,94.2z M124.4,95.1c-0.7-5.4,0.8-9.4,1.7-11.3l2.8,21.7
		C127.5,104,125.1,100.5,124.4,95.1z M119,104.8c-2.7-2.9-3.6-5.9-3.9-7.6l11,12.2C124.5,108.9,121.7,107.7,119,104.8z M115.8,96.6
		c1.7,0.5,4.5,1.7,7.2,4.6c2.7,2.9,3.6,5.9,3.9,7.6L115.8,96.6z M128.8,107.2c-0.3,0.5-0.6,1-0.8,1.4c-0.2-0.9-0.5-2.2-1.1-3.6
		C127.7,106.1,128.4,106.8,128.8,107.2z"/>
	<path class="st0" d="M126.2,69.1c-6.9-4.7-12.9-3.7-13.2-3.7l-0.6,0.1l0.1,0.6c0.1,0.3,1.4,6.2,8.3,10.9c4.8,3.3,9.3,3.8,11.5,3.8
		c1,0,2.9-0.4,3.9-1c-0.8,1.4-1.5,3.2-1.9,5.4c-1.1,6.5,1.5,10.5,1.7,10.6l0.4,0.5l0.5-0.4c0.2-0.1,4-3,5.1-9.5
		c1.1-6.5-1.5-10.5-1.7-10.6l0,0c0.7-1,1.4-2.1,2-3.5c2.6-6,0.9-10.5,0.9-10.7L143,61l-0.6,0.2c-0.2,0.1-4.6,2-7.2,8
		c-1.7,4-1.6,7.4-1.3,9.2C133.1,76.3,131.1,72.4,126.2,69.1z M136.3,93.8c-0.7-1.6-1.5-4.5-0.8-8.5c0.7-3.9,2.4-6.4,3.6-7.7
		L136.3,93.8z M140.8,86.3c-0.7,3.9-2.4,6.4-3.6,7.7l2.8-16.1C140.7,79.4,141.5,82.3,140.8,86.3z M142.4,63.4
		c0.3,1.7,0.4,4.8-1.2,8.4c-1.6,3.6-3.9,5.7-5.3,6.6L142.4,63.4z M136.3,69.7c1.6-3.6,3.9-5.7,5.3-6.6l-6.5,15.1
		C134.9,76.4,134.8,73.3,136.3,69.7z M121.5,76c-4.5-3.1-6.5-6.8-7.3-8.7l18.2,12.3C130.2,79.5,126,79.1,121.5,76z M114.6,66.5
		c2.1,0,6.3,0.5,10.9,3.6c4.5,3.1,6.5,6.8,7.3,8.7L114.6,66.5z"/>
	<path class="st0" d="M120,50.7l0.2-0.6c0.1-0.2,2.2-5.9-1.1-13.6c-3.3-7.7-8.8-10.1-9.1-10.2l-0.6-0.2l-0.2,0.6
		c-0.1,0.2-2.2,5.9,1.1,13.6s8.8,10.1,9.1,10.2L120,50.7z M118.1,37c2.1,5,1.8,9.2,1.4,11.3l-8.6-20.2C112.7,29.3,115.9,32,118.1,37
		z M111.5,39.8c-2.1-5-1.8-9.2-1.4-11.3l8.6,20.2C116.9,47.5,113.6,44.9,111.5,39.8z"/>
	<path class="st0" d="M47.9,132.5c1.9,0.4,3.6,0.5,5.2,0.5c5.2-0.1,8.3-2,8.4-2.1l0.5-0.3l-0.4-0.5c-0.1-0.2-3.7-5.2-11.8-6.9
		c-8.2-1.7-13.4,1.5-13.6,1.6l-0.5,0.3l0.4,0.5C36.2,125.8,39.8,130.8,47.9,132.5z M49.6,124.3c5.4,1.1,8.7,3.8,10.1,5.3l-21.5-4.4
		C40.2,124.4,44.2,123.2,49.6,124.3z M59.6,130.5c-2,0.8-6,2-11.4,0.8c-5.4-1.1-8.7-3.8-10.1-5.3L59.6,130.5z"/>
	<path class="st0" d="M124.8,56.7c-1.8-1.5-5.4-3.8-10.9-4.5c-8.3-1-13.2,2.6-13.4,2.7l-0.5,0.4l0.4,0.5c0.2,0.2,4.1,4.9,12.4,5.9
		c1,0.1,2,0.2,2.9,0.2c5.5,0,9-2,10.2-2.7c1.7,3.7,3.9,5.5,4,5.6l0.5,0.4l0.4-0.5c0,0,0.1-0.2,0.3-0.4c0,2.3,0.5,3.8,0.6,3.9
		l0.2,0.6l0.6-0.2c0.2-0.1,4.6-2,7.2-8c2.6-6,0.9-10.5,0.9-10.7l-0.2-0.6l-0.6,0.2c-0.2,0.1-3.5,1.5-6.1,5.8c0.1-1.2,0-2.5-0.2-3.9
		c-1-8.2-5.7-12.1-5.9-12.3l-0.5-0.4l-0.4,0.5c-0.2,0.2-3.8,5.1-2.7,13.4C124.1,54,124.4,55.4,124.8,56.7z M112.9,60.5
		c-5.5-0.7-8.9-3-10.5-4.4l21.8,2.6C122.4,59.6,118.4,61.1,112.9,60.5z M102.5,55.2c1.9-1,5.8-2.4,11.3-1.8c5.5,0.7,8.9,3,10.5,4.4
		L102.5,55.2z M139.7,51.6c0.3,1.7,0.4,4.8-1.2,8.4c-1.6,3.6-3.9,5.7-5.3,6.6L139.7,51.6z M133,59.4c0.2-0.5,0.3-0.9,0.5-1.4
		c1.6-3.6,3.9-5.7,5.3-6.6l-6.5,15.1c-0.2-1.3-0.3-3.3,0.3-5.7C132.8,60.2,132.9,59.8,133,59.4z M132.2,51.5
		c0.4,3.2,0.1,5.8-0.5,7.9c-0.1,0.2-0.1,0.5-0.2,0.7c-0.3,1.1-0.7,2-1.1,2.7L127.8,41C129.2,42.6,131.6,46,132.2,51.5z M126.9,41.1
		l2.7,21.7c-1.4-1.6-3.8-5-4.5-10.5C124.5,46.9,125.9,43,126.9,41.1z"/>
	<path class="st0" d="M60.1,25.9l-0.2-0.6l-0.6,0.2c-0.2,0.1-5.9,2.2-9.6,9.7c-3.7,7.5-1.9,13.3-1.8,13.5l0.2,0.6l0.6-0.2
		c0.2-0.1,4.4-1.7,7.9-6.8c0.7,1.3,3,4.5,7.9,6.5c2.6,1,4.8,1.4,6.6,1.4c2.5,0,4.1-0.6,4.2-0.6l0.6-0.2l-0.3-0.6
		c-0.1-0.2-2.1-4.6-8.2-7.1c-4.5-1.9-8.2-1.4-9.9-1c0.2-0.4,0.5-0.9,0.7-1.3C62,31.9,60.2,26.1,60.1,25.9z M67,42.8
		c3.7,1.5,5.7,3.8,6.8,5.2l-15.2-6.2C60.2,41.5,63.3,41.3,67,42.8z M73.4,48.8c-1.7,0.3-4.8,0.4-8.5-1.1c-3.7-1.5-5.8-3.8-6.8-5.2
		L73.4,48.8z M50.8,35.7c2.4-4.9,5.8-7.4,7.7-8.5L48.8,47C48.5,44.9,48.3,40.7,50.8,35.7z M57.2,38.9c-2.4,4.9-5.8,7.4-7.7,8.5
		l9.7-19.7C59.5,29.8,59.6,33.9,57.2,38.9z"/>
	<path class="st0" d="M59.6,38.8l-0.1,0.6l0.6,0.1c0.1,0,0.7,0.1,1.7,0.1c1.4,0,3.6-0.2,6.2-1.1l0,0c0.1,0.1,3.6,3.5,10.1,3.7
		c0.2,0,0.4,0,0.6,0c6.2,0,9.6-3,9.8-3.1l0.5-0.4l-0.4-0.4c-0.1-0.1-3.6-3.5-10.1-3.7c-1.4,0-2.6,0.1-3.7,0.3
		c5.7-4.4,6.9-9.5,6.9-9.7l0.1-0.6l-0.6-0.1c-0.3,0-6.3-1-13.2,3.6C61,32.7,59.7,38.6,59.6,38.8z M78.3,41.1c-4-0.1-6.7-1.5-8.2-2.5
		l16.5,0.5C85.1,40,82.2,41.3,78.3,41.1z M78.4,35.8c4,0.1,6.7,1.5,8.2,2.5l-16.4-0.5C71.6,36.9,74.4,35.7,78.4,35.8z M72.6,34.9
		c-4.6,3.1-8.8,3.5-10.9,3.5L80,26.2C79.2,28.2,77.2,31.9,72.6,34.9z M79.5,25.5L61.2,37.7c0.8-2,2.8-5.6,7.4-8.7
		C73.2,26,77.4,25.5,79.5,25.5z"/>
	<path class="st0" d="M68.1,54.1c-0.1-0.2-3.1-3.9-9.6-4.9C52,48.2,48,50.9,47.8,51l-0.5,0.4l0.4,0.5c0.1,0.1,0.7,0.9,2.1,1.9
		c-0.1,0.1-0.3,0.1-0.4,0.2c-3.6,2-5.6,4.6-6.5,6.2c0-0.4-0.1-0.7-0.1-1.1c-0.1-0.6-0.2-1.1-0.3-1.6l0.1,0.1l0.4-0.5
		c0.1-0.1,3.4-3.7,3.4-10.2c0-6.6-3.3-10.1-3.4-10.2l-0.4-0.5L42,36.7c-0.1,0.1-3.4,3.7-3.4,10.2c0,0.9,0.1,1.7,0.2,2.5
		c-1.2-1.6-2.2-2.4-2.3-2.4L36,46.6l-0.4,0.5c-0.1,0.2-3.6,5.2-2.4,13.4c0.1,1,0.3,1.9,0.6,2.7c-3.4-4.6-7.2-6-7.4-6.1l-0.6-0.2
		l-0.2,0.6c-0.1,0.2-1.9,6,1.8,13.5c3.6,7.5,9.4,9.6,9.6,9.7l0.6,0.2l0.2-0.6c0.1-0.2,1.3-4.2-0.3-9.9c1.1,1.4,2,2.1,2.1,2.1
		l0.5,0.4l0.4-0.5c0.1-0.2,2.6-3.7,2.6-9.7c0.4,0.1,1.1,0.2,2,0.2c2,0,4.9-0.4,8.1-2.2c2.2-1.2,3.8-2.6,4.9-3.9
		c0.7,0.1,1.5,0.1,2.1,0.1c4.8,0,7.7-2,7.8-2.1l0.5-0.4L68.1,54.1z M42.9,38.7c0.9,1.5,2.2,4.2,2.2,8.2c0,4-1.3,6.7-2.2,8.2V38.7z
		 M28.5,70.5c-2.4-4.9-2.3-9.1-2-11.2L36.1,79C34.3,78,30.9,75.5,28.5,70.5z M36.9,78.6l-9.6-19.7c1.8,1.1,5.2,3.5,7.6,8.5
		C37.3,72.3,37.2,76.5,36.9,78.6z M34.4,60.4c-0.8-5.4,0.6-9.4,1.5-11.3l3.3,21.7C37.8,69.2,35.3,65.8,34.4,60.4z M40.1,70.6
		l-3.3-21.7c1.4,1.5,3.9,4.9,4.7,10.4C42.4,64.7,41,68.7,40.1,70.6z M42,55.1c-0.9-1.5-2.2-4.2-2.2-8.2c0-4,1.3-6.7,2.2-8.2V55.1z
		 M50,55.1c0.3-0.2,0.7-0.4,1-0.5c0.7,0.4,1.5,0.8,2.4,1.2L43.8,61C44.7,59.5,46.5,57,50,55.1z M52.5,59.7c-3.5,1.9-6.6,2.1-8.3,2
		l10.2-5.6c0.6,0.2,1.3,0.4,2.1,0.5C55.6,57.7,54.3,58.8,52.5,59.7z M57.5,55.6c-3.9-0.6-6.5-2.3-7.8-3.4L66,54.7
		C64.4,55.3,61.4,56.2,57.5,55.6z M49.8,51.3c1.6-0.7,4.5-1.6,8.5-1c3.9,0.6,6.5,2.3,7.8,3.4L49.8,51.3z"/>
	<path class="st0" d="M57.7,87.4l0-0.6l-0.6,0c-0.2,0-5,0.1-9.8,4.6c-0.2,0.2-0.4,0.4-0.6,0.6c-1.1-3.2-2.6-5.3-3.6-6.3
		c1.9-0.9,5.9-3.4,8.9-9c3.9-7.3,2.3-13.2,2.2-13.4l-0.2-0.6l-0.6,0.2c-0.2,0.1-6,2-9.9,9.4c-3.3,6.2-2.7,11.3-2.4,12.9
		c-0.3,0.4-0.8,1.3-1.4,2.5c-0.9-2.1-3-5.9-7.7-9.1c-6.9-4.7-12.9-3.7-13.2-3.7l-0.6,0.1l0.1,0.6c0.1,0.2,1.4,6.2,8.3,10.8
		c4.8,3.3,9.2,3.8,11.5,3.8c0.3,0,0.5,0,0.7,0c-0.6,2.1-1,4.8-0.6,8c0.1,0.7,0.2,1.4,0.3,2.1c-1-1.1-2.3-2.3-4-3.4
		c-5.5-3.6-10.3-2.7-10.5-2.7l-0.6,0.1l0.1,0.6c0,0.2,1.2,4.9,6.7,8.4c3.7,2.4,7,2.8,8.9,2.8c0.5,0,0.9,0,1.2-0.1
		c0.5,0.9,0.9,1.7,1.4,2.3c-5-2.4-9-1.9-9.2-1.9l-0.6,0.1l0.1,0.6c0,0.3,1.1,6.2,7.9,11.2c5.1,3.7,9.8,4.2,11.9,4.2
		c0.7,0,1,0,1.1-0.1l0.6-0.1l-0.1-0.6c0-0.3-1.1-6.2-7.9-11.2c-0.2-0.2-0.5-0.3-0.7-0.5c0.8-1.1,2.7-4.5,2.9-9.8
		c1.5-0.7,3.1-1.7,4.7-3.3C57.4,92.4,57.6,87.6,57.7,87.4z M27.4,85.4c-4.5-3.1-6.5-6.8-7.3-8.7l18.2,12.3
		C36.1,88.9,31.9,88.4,27.4,85.4z M20.6,75.9c2.1,0,6.3,0.5,10.9,3.6c4.5,3.1,6.5,6.8,7.3,8.7L20.6,75.9z M51,76.1
		c-2.6,4.8-6.1,7.2-7.9,8.2l10.3-19.4C53.6,67,53.5,71.2,51,76.1z M44.6,72.7c2.6-4.8,6.1-7.2,7.9-8.2L42.2,83.9
		C42,81.8,42,77.6,44.6,72.7z M31.1,102.2c-3.3-2.1-5-4.8-5.7-6.3l13.8,8.9C37.5,104.8,34.4,104.4,31.1,102.2z M25.9,95.1
		c1.7,0,4.8,0.4,8.1,2.6c3.3,2.1,5,4.8,5.7,6.3L25.9,95.1z M41.1,104.4c-0.1-0.2-0.2-0.5-0.3-0.7c-0.6-1.6-1.1-3.5-1.3-5.7
		c-0.5-5.4,1.1-9.3,2.1-11.2l2.1,21.8C43,107.7,42,106.3,41.1,104.4z M40.8,117.2c-4.4-3.2-6.3-7-7-9l17.7,13
		C49.4,121.1,45.2,120.5,40.8,117.2z M52,120.5l-17.7-13c2.1,0.1,6.3,0.7,10.7,4C49.4,114.7,51.3,118.5,52,120.5z M44.6,108.5
		l-2.1-21.8c1.3,1.6,3.6,5.2,4.2,10.6C47.2,102.8,45.6,106.6,44.6,108.5z M47.1,93.3c0.3-0.3,0.6-0.7,1-1c2.9-2.7,5.8-3.7,7.5-4.1
		l-7.9,7.6C47.5,94.9,47.3,94,47.1,93.3z M47.9,98.9c0-0.5,0-1.1-0.1-1.7c0-0.1,0-0.2,0-0.3l8.4-8.1c-0.4,1.7-1.5,4.5-4.4,7.3
		C50.5,97.3,49.2,98.2,47.9,98.9z"/>
	<path class="st0" d="M108.6,133.8c-3.3-1-6-0.9-7.9-0.6c1.3-1.1,2.6-2.6,3.9-4.4c4.6-6.9,3.7-12.9,3.6-13.1l-0.1-0.6l-0.6,0.1
		c-0.3,0.1-6.2,1.4-10.8,8.3c-3.1,4.6-3.7,8.7-3.7,11.1c-0.6-0.5-1.3-0.8-2-0.8c-0.8,0-1.5,0.3-2,0.8c-0.1-0.7-0.4-1.3-0.8-1.7
		c-0.6-0.6-1.3-0.9-2.1-0.9c-0.8,0-1.6,0.3-2.1,0.9l-0.9,0.9c-0.3-1.8-1.5-6.7-6.4-11.3c-6.1-5.7-12.2-5.7-12.4-5.7l-0.5,0
		c-0.2-0.8-0.3-1.6-0.6-2.4c-2.4-7.9-7.7-11-8-11.1l-0.5-0.3l-0.3,0.6c-0.1,0.2-2.8,5.7-0.4,13.6s7.7,11,8,11.1l0.5,0.3l0.3-0.6
		c0.1-0.2,1.6-3.2,1.4-8c0.7,2.3,2.3,6,6,9.5c0.7,0.6,1.4,1.2,2,1.7c-2.4-0.4-5.5-0.4-9.3,0.6c-8,2.2-11.2,7.4-11.3,7.7l-0.3,0.5
		l0.6,0.3c0.2,0.1,3,1.5,7.5,1.5c1.8,0,3.9-0.2,6.2-0.9c6.9-1.9,10.2-6,11.1-7.3c2.3,1,4.2,1.3,5.2,1.4l-0.5,0.5
		c-0.4,0.4-0.7,1-0.8,1.5l-15.8,5.3c-0.9,0.3-1.4,1.2-1.1,2c0.1,0.4,0.4,0.7,0.8,0.9c0.2,0.1,0.4,0.1,0.7,0.1c0.2,0,0.4,0,0.6-0.1
		l15.9-5.3c0.6,0.5,1.2,0.7,1.9,0.7c0.7,0,1.4-0.3,2-0.8c0.1,0.6,0.4,1.3,0.8,1.7c0.6,0.6,1.3,0.9,2.1,0.9c0.8,0,1.6-0.3,2.1-0.9
		L92,140l15.6,6.1c0.2,0.1,0.5,0.1,0.7,0.1c0.6,0,1.2-0.3,1.5-0.9c0.2-0.4,0.1-0.8-0.1-1.2c-0.2-0.4-0.5-0.7-0.9-0.8l-14.8-5.8
		c0-0.1,0-0.3,0.1-0.4c0.5-0.1,2-0.6,3.9-1.7c0.8,1.1,3.3,4.3,8.5,5.8c2,0.6,3.7,0.8,5.3,0.8c3.3,0,5.4-1,5.6-1.1l0.6-0.3l-0.3-0.5
		C117.3,139.9,114.9,135.8,108.6,133.8z M55,116.8c-1.6-5.2-0.8-9.4-0.2-11.4l6.4,20.9C59.5,125,56.6,122,55,116.8z M62,126.1
		l-6.4-21c1.6,1.3,4.6,4.3,6.2,9.6C63.4,119.9,62.7,124,62,126.1z M63,132.8c5.3-1.5,9.4-0.6,11.4,0l-21.2,5.9
		C54.6,137.2,57.7,134.3,63,132.8z M65,139.7c-5.3,1.5-9.4,0.6-11.4,0l21.2-5.9C73.3,135.3,70.3,138.2,65,139.7z M70.8,128.5
		c-4-3.7-5.4-7.7-5.9-9.8l16,15C78.9,133.4,74.8,132.3,70.8,128.5z M65.5,118.1c2.1,0.3,6.1,1.5,10.2,5.2c4,3.7,5.4,7.7,5.9,9.8
		L65.5,118.1z M65.1,144.4c-0.2,0.1-0.4,0.1-0.6,0c-0.2-0.1-0.3-0.2-0.3-0.3c-0.1-0.3,0.2-0.7,0.6-0.9l15.5-5.2
		c0,0.4,0.2,0.9,0.4,1.2L65.1,144.4z M86,137.4l-1.6,1.6c-0.7,0.7-1.9,0.7-2.6,0c-0.7-0.7-0.7-1.9,0-2.6l2.7-2.7
		c0.4-0.4,0.8-0.5,1.3-0.5c0.5,0,0.9,0.2,1.3,0.5c0.7,0.7,0.7,1.9,0,2.6L86,137.4C86,137.4,86,137.4,86,137.4z M89.5,140.8
		c-0.7,0.7-1.9,0.7-2.6,0c-0.7-0.7-0.7-1.9,0-2.6l1.2-1.2c0,0,0,0,0,0l1.6-1.6c0.4-0.4,0.8-0.5,1.3-0.5c0.5,0,0.9,0.2,1.3,0.5
		c0.7,0.7,0.7,1.9,0,2.6L89.5,140.8z M108.3,144.1c0.2,0.1,0.4,0.2,0.5,0.4c0.1,0.2,0.1,0.3,0,0.5c-0.1,0.3-0.6,0.5-1,0.3l-15.2-6
		l0.4-0.4c0.2-0.2,0.3-0.4,0.5-0.6L108.3,144.1z M97.7,124.2c3.1-4.5,6.8-6.6,8.7-7.4L94.2,135C94.2,132.9,94.6,128.7,97.7,124.2z
		 M94.9,135.5l12.3-18.2c0,2.1-0.4,6.3-3.5,10.8C100.6,132.7,96.9,134.7,94.9,135.5z M106.7,140.1c-3.8-1.2-6.1-3.2-7.2-4.5
		l15.7,4.8C113.6,140.8,110.5,141.2,106.7,140.1z M99.8,134.7c1.7-0.4,4.7-0.9,8.5,0.3c3.8,1.2,6.1,3.2,7.2,4.5L99.8,134.7z"/>
	<path class="st0" d="M85.4,30.9L84.8,31l0.2,0.6c0.1,0.2,2.1,6,9.6,9.8c0.4,0.2,0.7,0.3,1.1,0.5c-3.2,0.9-4.9,2.4-5,2.5l-0.5,0.4
		l0.4,0.4c0.1,0.1,3.6,3.5,10.1,3.7c0.2,0,0.4,0,0.6,0c6.2,0,9.6-3,9.8-3.1l0.5-0.4l-0.4-0.4c-0.1-0.1-0.9-0.9-2.5-1.7l0,0l-0.2-0.6
		c0-0.1-0.4-1.1-1.3-2.4c0.1-1,0.7-6.6-3.6-13c-4.6-6.9-10.5-8.3-10.8-8.4l-0.6-0.1l-0.1,0.6c0,0.2-0.9,5.6,2.8,12
		C89.5,29.7,85.6,30.8,85.4,30.9z M95.1,40.3c-4.9-2.5-7.3-5.9-8.3-7.8l19.6,10C104.2,42.8,100,42.8,95.1,40.3z M100.8,47.8
		c-4-0.1-6.7-1.5-8.2-2.5l16.4,0.5C107.6,46.7,104.8,47.9,100.8,47.8z M109.1,44.9l-16.4-0.5c1-0.6,2.7-1.4,5-1.7
		c2.6,0.9,5,1.2,6.7,1.2c1,0,1.8-0.1,2.4-0.2C107.8,44.1,108.6,44.6,109.1,44.9z M102.7,27.9c3,4.5,3.5,8.7,3.5,10.8
		c-0.1-0.1-0.1-0.2-0.2-0.2l-12-18C95.9,21.3,99.6,23.3,102.7,27.9z M93.2,21l9.6,14.5c-1.1-0.9-2.4-1.8-3.9-2.5
		c-0.7-0.4-1.5-0.7-2.2-1c0,0-0.1-0.1-0.1-0.1C93.6,27.3,93.2,23.1,93.2,21z M98.4,34c4.9,2.5,7.3,5.9,8.3,7.8l-19.6-10
		C89.2,31.5,93.5,31.5,98.4,34z"/>
	<ellipse class="st0" cx="159.7" cy="111.6" rx="1.1" ry="1.1"/>
	<ellipse class="st0" cx="11.1" cy="111.6" rx="1.1" ry="1.1"/>
	<path class="st0" d="M21.7,128.6l-1,0.4l-2.3-3.4l3.9-2.5l2,3c0.7,1.1,0.8,1.9-0.2,2.8l0.6,0.7l2.1-1.7l-5.2-7.9l-0.7,0.5l0.4,1
		l-9.3,6.1l-0.8-0.8l-0.7,0.5l2.3,3.5l0.7-0.5l-0.5-1.2l4.5-2.9l2.3,3.4l-0.9,0.9l0.6,0.8l2.9-1.9L21.7,128.6z"/>
	<path class="st0" d="M24.1,135.4c-3,2.9-2.8,6.9-0.2,9.4c2.5,2.5,6.9,2.8,9.9-0.1c3-2.9,2.8-6.9,0.2-9.4
		C31.4,132.7,27.1,132.4,24.1,135.4z M32,143.7c-2.5,2.5-5.2,2-6.9,0.3c-1.7-1.7-1.9-5,0.8-7.7c2.5-2.5,5.2-2,6.9-0.3
		C34.4,137.7,34.6,141,32,143.7z"/>
	<path class="st0" d="M51.2,149.6l0.5-0.7l-2.9-1.9l-0.5,0.7l0.8,0.7l-3.9,6.1c-1.4,2.1-3.3,2.6-5.2,1.5c-2.3-1.4-2.4-3.3-1-5.5
		l3.8-6l1,0.4l0.5-0.7l-3.4-2.1l-0.5,0.7l0.8,0.7l-4,6.2c-1.8,2.8-1.2,5.4,1.7,7.3c2.9,1.8,5.5,1.2,7.3-1.6l4-6.2L51.2,149.6z"/>
	<path class="st0" d="M63.7,154.4l0.9,0.6l-2.9,8.3l-4.8-12.2l-2.1-0.8l-0.3,0.8c0.4,0.2,0.6,0.5,0.8,1l-3.6,10l-1.1-0.1l-0.3,0.8
		l3.3,1.2l0.3-0.8l-0.9-0.6l3-8.5l5,12.7l0.9,0.3l4.1-11.6l1.1,0.1l0.3-0.8l-3.3-1.2L63.7,154.4z"/>
	<path class="st0" d="M76,156.1l-5.4-0.6l-0.1,0.9l1,0.3l-1.2,11l-1.1,0.1l-0.1,0.9l5.4,0.6c4.3,0.5,7.9-1.4,8.4-5.8
		C83.4,159.1,80.3,156.5,76,156.1z M81,163.5c-0.4,3.8-3.5,4.9-6.6,4.6c-0.9-0.1-1.8-0.3-2.1-0.4l1.2-10.7l2.5,0.3
		C79.1,157.5,81.4,159.6,81,163.5z"/>
	<path class="st0" d="M94.5,168.2l-3.1,0.3l-0.5-5.2l4.5-0.5l0.3,1.2l1-0.1l-0.3-3.4l-1,0.1l-0.1,1.1l-4.5,0.5l-0.5-4.6l4-0.4
		c1.3-0.1,2,0.2,2.4,1.4l0.9-0.2l-0.5-2.6l-9.8,1l0.1,0.9l1.1,0.1l1.1,11l-1,0.3l0.1,0.9l9.5-1l0.8-2.8L98,166
		C96.9,167.9,96,168.1,94.5,168.2z"/>
	<path class="st0" d="M106.2,153.5l-5.2,1.7l0.3,0.8l1.1-0.1l3.4,10.6l-0.9,0.5l0.3,0.8l5.2-1.7c4.1-1.3,6.7-4.5,5.3-8.7
		C114.2,153.2,110.3,152.1,106.2,153.5z M109.6,165.2c-0.8,0.3-1.8,0.4-2.1,0.4l-3.3-10.3l2.4-0.8c3-1,6-0.1,7.2,3.7
		C114.9,161.9,112.6,164.2,109.6,165.2z"/>
	<path class="st0" d="M131,155.4l-4.5-7l-0.4,0c-0.2,1.1-0.9,2.3-1.6,3l0.4,0.6l1.4-0.9l3.3,5.1l-1.3,1l0.5,0.8l4.2-2.7l-0.5-0.8
		L131,155.4z"/>
	<path class="st0" d="M136.8,143.2c0.8-1.3,0.8-2.8-0.1-3.9c-1-1.2-3.1-1.5-4.9,0c-2,1.7-2.2,3.8-0.9,5.2c1,1.2,2.4,1.3,3.6,1
		c-0.8,1.4-1,3.1,0.3,4.6c1.5,1.8,3.9,1.5,5.7,0c2-1.7,2.7-4.2,1-6.1C140.2,142.5,138.4,142.6,136.8,143.2z M132,143
		c-0.7-0.8-0.7-2.1,0.4-3c1.1-0.9,2.3-0.9,3.3,0.3c0.9,1,0.8,2.3,0.1,3.3C134,144.1,132.9,144.1,132,143z M139.7,149.2
		c-1.2,1-2.9,1.1-4.1-0.2c-1-1.1-0.9-2.5-0.3-3.7c1.5-0.4,3.5-1.4,4.8,0C141.5,146.8,140.7,148.4,139.7,149.2z"/>
	<path class="st0" d="M146.1,130.4l-5.3,6.3l2.1,2.3l0.6-0.5c-0.6-0.8-0.7-1.5,0-2.3l3.1-3.7l5,11.5c0.6,0.3,1.7-0.6,1.6-1.5
		l-6.7-11.8L146.1,130.4z"/>
	<path class="st0" d="M156.7,122.4c-2.3-1.4-5-0.7-6.4,1.5c-1.3,2.2-1,5,1.9,6.7c2.3,1.4,5,0.7,6.4-1.5
		C159.9,126.9,159.5,124.1,156.7,122.4z M157.7,128.4c-0.8,1.3-2.5,1.8-4.7,0.5c-2.1-1.3-2.6-3.1-1.8-4.4c0.8-1.3,2.5-1.8,4.7-0.5
		S158.5,127.1,157.7,128.4z"/>
	<path class="st0" d="M13.4,95.3c0.3,2.1-1.1,3.5-2.3,4.2l0.5,0.9l3.4-1.3l-0.1-0.8l-0.7-0.1c0.4-0.9,0.7-1.9,0.5-3
		c-0.3-2-1.8-4.3-4.8-3.9c-4.4,0.7-2.6,7.3-5.5,7.8c-1.1,0.2-2-0.4-2.3-1.8c-0.3-1.7,0.9-3,2-3.8l-0.5-0.9l-3,1.3l0.1,0.8l0.7,0.1
		c-0.3,0.3-0.8,1.2-0.6,2.6c0.3,2.1,1.8,3.8,4.2,3.4c4.1-0.6,2.4-7.3,5.6-7.8C12.3,92.8,13.2,94,13.4,95.3z"/>
	<path class="st0" d="M1.9,86.1l5.7-3.5l4.8,0.2l0.2,1.1l0.9,0l0.2-4l-0.9,0l-0.3,1l-4.8-0.2l-5.4-4.3c-0.7-0.5-0.8-0.6-0.9-1.3
		l-0.9,0l-0.1,3.2l0.9,0l0.3-1l5,3.8l-5.3,3.1l-0.2-1.1l-0.9,0L0,87.3l0.9,0C1,86.7,1.2,86.5,1.9,86.1z"/>
	<path class="st0" d="M2.7,68.8l10.8,2.7l0,1.1l0.9,0.2l1-4.1l-0.9-0.2l-0.5,1.2l-4.7-1.1c1.5-3.9,7-2.4,7.9-5.9
		c0.1-0.5,0.1-0.9,0-1.3l-0.8-0.2c-0.9,2.6-4.5,2-6.3,4c0.2-2-0.6-3.7-2.8-4.2c-2.2-0.6-4.1,1-4.6,3.3l-1.3,5.4l0.9,0.2L2.7,68.8z
		 M3.4,65.3c0.5-2.1,1.8-2.9,3.8-2.4c1.8,0.4,2.2,1.8,1.7,3.5c-0.2,0.9-0.6,1.5-0.8,1.8l-5.1-1.2L3.4,65.3z"/>
	<path class="st0" d="M17.1,58.7l0.8,0.4l1.5-3l-0.8-0.4L18,56.5l-2-2.3l2.5-5l3,0.2l-0.3,1l0.8,0.4l1.8-3.7L23,46.8
		c-0.4,0.6-0.8,0.8-1.5,0.7L8.8,46.7l-0.4,0.8l8.3,9.5C17.3,57.7,17.4,58.1,17.1,58.7z M10.9,48.7l6.2,0.5l-2.1,4.2L10.9,48.7z"/>
	<path class="st0" d="M20.1,41.1c3.3,2.6,7.2,2,9.6-1.1c1.7-2.1,1.6-4,1.9-4.8c0.1-0.3,0.2-0.5,0.4-0.6l-1.7-2.1l-0.8,0.5
		c0.7,1.5,1,4-0.5,6c-1.8,2.2-5.1,2.7-7.9,0.4C18,36.9,18.4,34,20,32c1.8-2.2,4.1-2.2,5.5-2l0.3-0.9l-3-1.4l-0.4,0.6l0.3,0.5
		c-0.8,0.1-2.5,0.7-3.9,2.4C16.5,34.1,16.8,38.4,20.1,41.1z"/>
	<path class="st0" d="M29.4,22.1l4.6,5.8c2,2.6,4.8,2.9,7.4,0.9c2.7-2.1,3-4.8,1-7.4l-4.6-5.8l0.7-0.8L37.9,14l-2.7,2.1l0.5,0.7
		l1-0.5l4.5,5.7c1.6,2,1.3,4-0.4,5.3c-2.1,1.7-3.9,1.1-5.5-0.9l-4.4-5.6l0.7-0.8L31,19.4l-3.2,2.5l0.5,0.7L29.4,22.1z"/>
	<path class="st0" d="M54.2,16.6c0.8,1.5-0.1,2.8-1.3,3.3c-1.9,0.9-3.7,0-4.8-0.9l-0.7,0.7l2.2,2.8l0.7-0.4l-0.1-0.7
		c1,0.1,2,0.1,3-0.5c1.8-0.9,3.6-3,2.3-5.7c-2-4-7.8-0.3-9.1-2.9c-0.5-1-0.3-2.1,1.1-2.7c1.5-0.8,3.2-0.1,4.2,0.8l0.7-0.7l-2.1-2.5
		l-0.7,0.4l0.1,0.7c-0.4-0.2-1.4-0.4-2.7,0.3c-1.9,1-3.1,2.9-2,5C47,17.4,52.8,13.7,54.2,16.6z"/>
	<path class="st0" d="M58.8,5.3l3,10.7l-1,0.5l0.2,0.9l9.2-2.5l0.3-2.8l-0.9-0.1c-0.7,2.1-1.6,2.4-3.1,2.8l-3,0.8l-1.4-5.1l4.4-1.2
		l0.5,1.1l1-0.3l-0.9-3.3l-1,0.3l0.1,1.1l-4.4,1.2l-1.2-4.5l3.9-1.1c1.3-0.4,2-0.2,2.7,1L68,4.4l-1-2.5l-9.5,2.6l0.2,0.9L58.8,5.3z"
		/>
	<path class="st0" d="M81.7,8.5c-0.1,3.3,1.8,5.3,5.2,5.4c3.4,0.1,5.4-1.8,5.5-5.1l0.2-7.4l1.1-0.2l0-0.9l-3.5-0.1l0,0.9l1,0.2
		l-0.2,7.2c-0.1,2.5-1.5,4-3.7,3.9c-2.7-0.1-3.7-1.6-3.7-4.2l0.2-7.1L84.8,1l0-0.9l-4-0.1l0,0.9l1,0.2L81.7,8.5z"/>
	<path class="st0" d="M100.5,14.2l-1-0.5l2.3-8.8l6,12.2l0.9,0.2L112,5.5l1.1,0.1l0.2-0.9l-3.4-0.9l-0.2,0.9l1,0.5l-2.3,8.5
		l-5.8-11.8l-2.2-0.6l-0.2,0.9c0.4,0.2,0.6,0.5,0.8,0.9l-2.7,10.3l-1.1-0.1l-0.2,0.9l3.4,0.9L100.5,14.2z"/>
	<polygon class="st0" points="117.6,20.2 116.7,19.6 121.5,9.5 122.5,9.8 122.9,9 119.3,7.3 118.9,8.1 119.8,8.7 115,18.8 114,18.5
		113.6,19.3 117.2,21 	"/>
	<path class="st0" d="M125.1,26l0.8,0.5l10.7-6.8c0.7-0.4,1.1-0.5,1.7-0.1l0.5-0.7l-2.8-1.9l-0.5,0.7l0.7,0.8l-8.9,5.8l2.4-10.3
		l1,0.4l0.5-0.7l-3.4-2.3l-0.5,0.7c0.5,0.5,0.6,0.9,0.5,1.6L125.1,26z"/>
	<path class="st0" d="M134.6,31.7l-0.9-0.6l-0.6,0.6l6.6,6.9l2.6-1.1l-0.3-0.8c-2.2,0.3-2.8-0.3-3.9-1.4L136,33l3.8-3.6l3.1,3.3
		l-0.8,1l0.7,0.7l2.5-2.3l-0.7-0.7l-0.9,0.6l-3.1-3.3l3.4-3.2l2.8,2.9c0.9,1,1.1,1.7,0.4,2.8l0.7,0.5l1.7-2l-6.8-7.1l-0.6,0.6
		l0.6,0.9L134.6,31.7z"/>
	<path class="st0" d="M144.2,42.6l-0.7-0.8l-0.8,0.5l2.2,3.6l0.8-0.5l-0.5-1.2l4.1-2.5c1.8,3.8-3.1,6.7-1.2,9.8
		c0.3,0.4,0.6,0.7,0.9,0.9l0.7-0.4c-1.2-2.4,1.6-4.6,1.5-7.3c1.3,1.5,3.1,2.1,5,1c2-1.2,2.1-3.6,0.9-5.6l-3-4.7l-0.8,0.5l0.4,1
		L144.2,42.6z M154.8,38.2l0.9,1.4c1.2,1.8,0.8,3.3-0.9,4.4c-1.6,1-2.8,0.3-3.8-1.2c-0.5-0.8-0.7-1.5-0.7-1.8L154.8,38.2z"/>
	<path class="st0" d="M155.8,60.4c-1.6,0.6-2.8-0.4-3.2-1.6c-0.8-2,0.4-3.6,1.4-4.6l-0.7-0.8l-3,2l0.3,0.7l0.7,0
		c-0.2,0.9-0.2,2,0.2,3c0.7,1.9,2.7,3.8,5.5,2.8c4.2-1.6,1-7.7,3.7-8.8c1-0.4,2.1-0.1,2.6,1.3c0.6,1.6-0.2,3.2-1.2,4.1l0.7,0.8
		l2.7-1.9l-0.3-0.8l-0.7,0c0.2-0.4,0.5-1.3,0-2.7c-0.8-2-2.6-3.3-4.8-2.4C155.7,53.1,158.9,59.2,155.8,60.4z"/>
	<polygon class="st0" points="155.6,67.9 155.2,66.9 154.3,67.1 155.2,71 156.1,70.8 156,69.8 166.9,67.3 167.4,68.3 168.2,68.1
		167.4,64.2 166.5,64.4 166.5,65.5 	"/>
	<path class="st0" d="M166.5,74.4c1.3,0.2,1.7,0.8,1.8,2.2l0.1,1.6l-11.1,0.7l-0.3-1.2l-0.9,0.1l0.3,4.4l0.9-0.1l0.1-1.3l11.1-0.7
		l0.1,1.6c0.1,1.3-0.2,2-1.5,2.4l0.2,0.9l2.7-0.5l-0.7-10.8l-2.7-0.1L166.5,74.4z"/>
	<path class="st0" d="M167.9,90.7l-6,2.9l-4.8-0.6L157,92l-0.9-0.1l-0.5,4l0.9,0.1l0.4-1l4.8,0.6l5,4.7c0.6,0.6,0.8,0.7,0.8,1.4
		l0.9,0.1l0.4-3.2l-0.9-0.1l-0.4,1l-4.6-4.3l5.5-2.6l0.1,1.1l0.9,0.1l0.5-4l-0.9-0.1C168.8,90.2,168.7,90.3,167.9,90.7z"/>
	<path class="st0" d="M74.9,59.4c0.9,0,1.3,0.3,1.4,0.4l0.1,0l0.2-0.8l0,0l0,0c-0.3-0.2-0.8-0.4-1.6-0.4c-1.4,0-2.2,0.7-2.2,1.8
		c0,1.1,0.8,1.4,1.8,1.7c1.1,0.3,1.5,0.6,1.5,1.2c0,0.7-0.5,1-1.4,1c-0.8,0-1.4-0.3-1.7-0.5l-0.1,0l-0.2,0.9l0,0l0,0
		c0.2,0.1,0.8,0.5,1.8,0.5c1.5,0,2.4-0.7,2.4-2c0-1.3-1-1.6-1.9-1.9c-1-0.3-1.3-0.5-1.3-1C73.6,59.7,74.1,59.4,74.9,59.4z"/>
	<path class="st0" d="M78.5,58.7v4.2c0,1.5,0.9,2.3,2.5,2.3c1.6,0,2.5-0.9,2.5-2.3v-4.2h-0.8v4.2c0,0.9-0.6,1.5-1.6,1.5
		c-1,0-1.6-0.5-1.6-1.5v-4.2H78.5z"/>
	<path class="st0" d="M85.1,61.9c0,1.9,1.4,3.3,3.3,3.3c1.9,0,3.3-1.4,3.3-3.3c0-1.9-1.4-3.3-3.3-3.3C86.5,58.6,85.1,60,85.1,61.9z
		 M90.7,61.9c0,1.5-1,2.5-2.3,2.5c-1.4,0-2.4-1-2.4-2.5c0-1.5,0.9-2.5,2.4-2.5C89.8,59.4,90.7,60.4,90.7,61.9z"/>
	<path class="st0" d="M95,64.3c-0.8,0-1.4-0.3-1.7-0.5l-0.1,0l-0.2,0.9l0,0l0,0c0.2,0.1,0.8,0.5,1.8,0.5c1.5,0,2.4-0.7,2.4-2
		c0-1.3-1-1.6-1.9-1.9c-1-0.3-1.3-0.5-1.3-1c0-0.5,0.5-0.8,1.2-0.8c0.9,0,1.3,0.3,1.4,0.4l0.1,0l0.2-0.8l0,0l0,0
		c-0.3-0.2-0.8-0.4-1.6-0.4c-1.4,0-2.2,0.7-2.2,1.8c0,1.1,0.8,1.4,1.8,1.7c1.1,0.3,1.5,0.6,1.5,1.2C96.4,64,95.9,64.3,95,64.3z"/>
	<path class="st0" d="M64.6,72.1c0.9,0,1.4,0.3,1.6,0.5l0.1,0.1l0.2-0.9l0,0c-0.5-0.3-1-0.5-1.8-0.5c-1.9,0-3.2,1.4-3.2,3.3
		s1.3,3.3,3.2,3.3c0.8,0,1.5-0.3,2.2-0.8l0,0l-0.5-0.6l0,0c-0.3,0.3-0.8,0.6-1.7,0.6c-1.4,0-2.3-1-2.3-2.5
		C62.3,73.1,63.2,72.1,64.6,72.1z"/>
	<path class="st0" d="M70.9,77.9c1.6,0,2.5-0.9,2.5-2.3v-4.2h-0.8v4.2c0,0.9-0.6,1.5-1.6,1.5s-1.6-0.5-1.6-1.5v-4.2h-0.9v4.2
		C68.4,77.1,69.3,77.9,70.9,77.9z"/>
	<polygon class="st0" points="78.8,77 76.1,77 76.1,71.5 75.3,71.5 75.3,77.8 78.8,77.8 	"/>
	<polygon class="st0" points="81.7,77.8 81.7,72.3 83.5,72.3 83.5,71.5 79.1,71.5 79.1,72.3 80.8,72.3 80.8,77.8 	"/>
	<path class="st0" d="M87.8,71.3c-1.9,0-3.3,1.4-3.3,3.3s1.4,3.3,3.3,3.3c1.9,0,3.3-1.4,3.3-3.3S89.7,71.3,87.8,71.3z M87.8,77.1
		c-1.4,0-2.4-1-2.4-2.5c0-1.5,0.9-2.5,2.4-2.5c1.4,0,2.3,1,2.3,2.5C90.2,76.1,89.2,77.1,87.8,77.1z"/>
	<path class="st0" d="M97.5,77.8l-2.1-2.7c0.9-0.2,1.4-0.9,1.4-1.8c0-1.1-0.8-1.9-2-1.9h-2.1v6.3h0.9v-2.6h0.8l1.9,2.6H97.5z
		 M93.7,74.4v-2.1h1.1c0.7,0,1.1,0.4,1.1,1.1c0,0.7-0.4,1.1-1.1,1.1H93.7z"/>
	<polygon class="st0" points="102.9,72.3 102.9,71.5 99,71.5 99,77.8 102.9,77.8 102.9,77 99.8,77 99.8,74.9 102.6,74.9 102.6,74.1
		99.8,74.1 99.8,72.3 	"/>
	<path class="st0" d="M106.7,74c-1-0.3-1.3-0.5-1.3-1c0-0.5,0.5-0.8,1.2-0.8c0.9,0,1.3,0.3,1.4,0.4l0.1,0l0.2-0.8l0,0l0,0
		c-0.3-0.2-0.8-0.4-1.6-0.4c-1.4,0-2.2,0.7-2.2,1.8c0,1.1,0.8,1.4,1.8,1.7c1.1,0.3,1.5,0.6,1.5,1.2c0,0.7-0.5,1-1.4,1
		c-0.8,0-1.4-0.3-1.7-0.5l-0.1,0l-0.2,0.9l0,0l0,0c0.2,0.1,0.8,0.5,1.8,0.5c1.5,0,2.4-0.7,2.4-2C108.6,74.6,107.6,74.3,106.7,74z"/>
	<path class="st0" d="M66.3,86.7c-1-0.3-1.3-0.5-1.3-1c0-0.5,0.5-0.8,1.2-0.8c0.9,0,1.3,0.3,1.4,0.4l0.1,0l0.2-0.8l0,0l0,0
		c-0.3-0.2-0.8-0.4-1.6-0.4c-1.4,0-2.2,0.7-2.2,1.8c0,1.1,0.8,1.4,1.8,1.7c1.1,0.3,1.5,0.6,1.5,1.2c0,0.7-0.5,1-1.4,1
		c-0.8,0-1.4-0.3-1.7-0.5l-0.1,0l-0.2,0.9l0,0l0,0c0.2,0.1,0.8,0.5,1.8,0.5c1.5,0,2.4-0.7,2.4-2C68.3,87.4,67.3,87,66.3,86.7z"/>
	<path class="st0" d="M72.8,84.9c0.9,0,1.4,0.3,1.6,0.5l0.1,0.1l0.2-0.9l0,0c-0.5-0.3-1-0.5-1.8-0.5c-1.9,0-3.2,1.4-3.2,3.3
		c0,1.9,1.3,3.3,3.2,3.3c0.8,0,1.5-0.3,2.2-0.8l0,0l-0.5-0.6l0,0c-0.3,0.3-0.8,0.6-1.7,0.6c-1.4,0-2.3-1-2.3-2.5
		C70.6,85.8,71.5,84.9,72.8,84.9z"/>
	<polygon class="st0" points="77.6,87.2 77.6,84.2 76.7,84.2 76.7,87.2 76.7,90.5 77.6,90.5 	"/>
	<polygon class="st0" points="83.5,89.7 80.4,89.7 80.4,87.6 83.1,87.6 83.1,86.8 80.4,86.8 80.4,85 83.5,85 83.5,84.2 79.5,84.2
		79.5,90.5 83.5,90.5 	"/>
	<polygon class="st0" points="89.6,90.5 90.2,90.5 90.2,84.2 89.3,84.2 89.3,88.8 85.9,84.2 85.9,84.2 85.2,84.2 85.2,90.5
		86.1,90.5 86.1,86 89.6,90.5 	"/>
	<polygon class="st0" points="96.2,84.2 91.8,84.2 91.8,85 93.6,85 93.6,90.5 94.4,90.5 94.4,85 96.2,85 	"/>
	<polygon class="st0" points="97.9,90.5 98.7,90.5 98.7,87.1 98.7,84.2 97.9,84.2 97.9,87 	"/>
	<path class="st0" d="M105,90.5L105,90.5l1,0l-2.4-6.3l0,0h-0.9l-2.4,6.3l0,0.1h1l0.7-1.8h2.4L105,90.5z M102.2,87.9l0.9-2.4
		l0.9,2.4H102.2z"/>
	<path class="st0" d="M65.7,103.4c0.8,0,1.5-0.3,2.2-0.8l0,0l-0.5-0.6l0,0c-0.3,0.3-0.8,0.6-1.7,0.6c-1.4,0-2.3-1-2.3-2.5
		c0-1.5,0.9-2.5,2.3-2.5c0.9,0,1.4,0.3,1.6,0.5l0.1,0.1l0.2-0.9l0,0c-0.5-0.3-1-0.5-1.8-0.5c-1.9,0-3.2,1.4-3.2,3.3
		C62.5,102,63.8,103.4,65.7,103.4z"/>
	<path class="st0" d="M72.2,103.4c1.9,0,3.3-1.4,3.3-3.3c0-1.9-1.4-3.3-3.3-3.3c-1.9,0-3.3,1.4-3.3,3.3
		C69,102,70.3,103.4,72.2,103.4z M72.2,97.6c1.4,0,2.3,1,2.3,2.5c0,1.5-1,2.5-2.3,2.5c-1.4,0-2.4-1-2.4-2.5
		C69.9,98.6,70.8,97.6,72.2,97.6z"/>
	<path class="st0" d="M78.1,100.7h0.8l1.9,2.6h1.1l-2.1-2.7c0.9-0.2,1.4-0.9,1.4-1.8c0-1.1-0.8-1.9-2-1.9h-2.1v6.3h0.9V100.7z
		 M78.1,97.7h1.1c0.8,0,1.1,0.4,1.1,1.1s-0.4,1.1-1.1,1.1h-1.1V97.7z"/>
	<path class="st0" d="M86.1,103.4c1.9,0,3.3-1.4,3.3-3.3c0-1.9-1.4-3.3-3.3-3.3c-1.9,0-3.3,1.4-3.3,3.3
		C82.8,102,84.2,103.4,86.1,103.4z M86.1,97.6c1.4,0,2.3,1,2.3,2.5c0,1.5-1,2.5-2.3,2.5c-1.4,0-2.4-1-2.4-2.5
		C83.8,98.6,84.7,97.6,86.1,97.6z"/>
	<polygon class="st0" points="91.9,98.7 95.4,103.2 95.4,103.3 96,103.3 96,96.9 95.2,96.9 95.2,101.5 91.7,96.9 91.7,96.9
		91.1,96.9 91.1,103.3 91.9,103.3 	"/>
	<path class="st0" d="M99.2,101.5h2.4l0.7,1.7l0,0h1l-2.4-6.3l0,0H100l-2.4,6.3l0,0.1h1L99.2,101.5z M100.4,98.2l0.9,2.4h-1.8
		L100.4,98.2z"/>
	<polygon class="st0" points="106.2,103.3 106.2,97.7 108,97.7 108,96.9 103.6,96.9 103.6,97.7 105.3,97.7 105.3,103.3 	"/>
</g>
</svg>
